<?xml version="1.0" encoding="utf-8"?><svg id="FINGERSCROSSEDSVG2" image-rendering="optimizeQuality" baseProfile="basic" version="1.1" x="0px" y="0px" width="1440" height="900" xmlns="http://www.w3.org/2000/svg" xmlns:xlink="http://www.w3.org/1999/xlink"><g id="Scene_1" overflow="visible"><g><g><g id="Layer11_0_FILL"><path fill="#010202" stroke="none" d="M189.2 103.9L214.65 103.9 214.65 236 235.7 236 235.7 103.9 261.1 103.9 261.1 92.9 189.2 92.9 189.2 103.9M188.35 128.85Q183.8 115.2 175.35 105.75 169.65 99.35 162.4 95.75 155.1 92.15 147.9 92.15 144 92.15 140.45 93.5 137.55 94.55 133.9 96.95L133.9 97Q115.9 109.45 106.55 128.3 97.15 147.1 97.15 170.95 97.15 185.2 100.6 197.85 104.05 210.5 110.5 220.05 116.85 229.35 125.1 234.35 133.35 239.3 142.45 239.3 147.6 239.3 151.7 237.6 155.8 235.9 159.5 232.25 177.3 214.35 185.05 197.15 192.85 179.9 192.85 158.5 192.85 142.45 188.35 128.85M175.1 171.55Q175.1 182.95 172.95 194.25 171 204.4 168.3 210 167 212.6 162.6 214.1 158.2 215.65 152.15 215.65 136.05 215.65 125.6 199 115.1 182.35 115.1 156.75 115.1 144.95 117.9 133.5 120.45 123.15 124 117.55 126.65 113.6 135.3 113.6 143.3 113.6 150.5 117.8 157.75 121.95 163.3 129.8 169 137.85 172.05 148.65 175.1 159.45 175.1 171.55M289.35 92.9L270.3 92.9 270.3 235.2 289.35 235.2 289.35 92.9M358.5 97.55Q351.9 92.7 345.35 92.7 341.15 92.7 336.4 94.9 331.65 97.05 327.9 100.7 319.35 108.85 314.95 119.1 310.5 129.4 310.5 141.1 310.5 156.9 318.3 167.05 321.1 170.75 325.2 173.95 327.7 175.9 332.7 179.05 338.9 183 341.35 185.05 347.6 190.35 347.6 204.05 347.6 210 346.75 213.75 346 216.9 344.2 220.05 343.6 220.2 342.35 220.2 336.7 220.2 329.65 216.25 321.3 211.55 319 204.75L318.8 204.1 300.85 218.35 301 218.65Q304.55 228.05 315.05 233.8 324 238.7 332.5 238.7 335.15 238.7 337.05 237.95 339.3 237.05 341.85 234.6L344.25 232.2Q356.05 220.6 359.7 214.45 365.3 205 365.3 191.05 365.3 183.2 362.85 176.25 360.45 169.3 355.85 164.05 353.2 161.05 349.45 158.45 347.4 156.95 342.75 154.2 338.6 151.75 337.2 150.8 331.25 146.7 328.55 141.15 325.85 135.6 325.85 127.5 325.85 122.4 326.65 118.3 327.5 114.15 328.95 111.9 331 111.2 332.5 111.2 337.15 111.2 342.7 114.95 349.1 119.25 351.75 125.7L352 126.3 368.7 111.25 368.6 110.95Q365.65 102.75 358.5 97.55Z"/></g></g><animate attributeName="display" repeatCount="indefinite" dur="8.208s" keyTimes="0;0.264;1" values="inline;none;none"/></g><g style="display:none;"><g><g id="Layer10_0_FILL"><path fill="#010202" stroke="none" d="M289.35 280.4L270.3 280.4 270.3 422.7 289.35 422.7 289.35 280.4M261.1 291.35L261.1 280.4 189.2 280.4 189.2 291.35 214.65 291.35 214.65 423.5 235.7 423.5 235.7 291.35 261.1 291.35M147.9 279.65Q143.95 279.65 140.45 280.95 137.5 282.05 133.9 284.45 115.9 296.95 106.55 315.75 97.15 334.6 97.15 358.45 97.15 372.65 100.6 385.35 104.05 398 110.5 407.5 116.85 416.85 125.1 421.8 133.35 426.8 142.45 426.8 147.6 426.8 151.7 425.1 155.8 423.4 159.5 419.75 177.3 401.85 185.05 384.65 192.85 367.4 192.85 346 192.85 329.95 188.35 316.3 183.8 302.7 175.35 293.2 169.65 286.85 162.4 283.25 155.1 279.65 147.9 279.65M124 305.05Q126.65 301.1 135.3 301.1 143.3 301.1 150.5 305.3 157.75 309.45 163.3 317.3 169 325.35 172.05 336.15 175.1 346.95 175.1 359.05 175.1 370.45 172.95 381.75 171 391.9 168.3 397.5 167 400.1 162.6 401.6 158.2 403.15 152.15 403.15 136.05 403.15 125.6 386.5 115.1 369.85 115.1 344.25 115.1 332.45 117.9 321 120.45 310.65 124 305.05M336.4 282.4Q331.65 284.55 327.9 288.2 319.35 296.35 314.95 306.6 310.5 316.9 310.5 328.6 310.5 344.4 318.3 354.55 321.1 358.25 325.2 361.45 327.5 363.25 332.7 366.55 338.45 370.1 341.35 372.55 344.55 375.25 346.05 379.9 347.6 384.5 347.6 391.55 347.6 397.5 346.75 401.25 346 404.4 344.2 407.55 343.6 407.7 342.35 407.7 336.7 407.7 329.65 403.75 321.3 399.05 319 392.25L318.8 391.6 300.85 405.85 301 406.15Q304.55 415.55 315.05 421.3 324 426.2 332.5 426.2 335.15 426.2 337.05 425.45 339.3 424.55 341.85 422.1L344.25 419.7Q356.05 408.1 359.7 401.95 365.3 392.5 365.3 378.55 365.3 370.7 362.85 363.75 360.45 356.8 355.85 351.55 353.2 348.55 349.45 345.95 347.4 344.45 342.75 341.7 338.7 339.3 337.2 338.25 331.25 334.1 328.55 328.6 325.85 323.1 325.85 315 325.85 309.9 326.65 305.8 327.5 301.65 328.95 299.4 331 298.7 332.5 298.7 337.15 298.7 342.7 302.45 349.1 306.75 351.75 313.2L352 313.8 368.7 298.75 368.6 298.45Q365.65 290.25 358.5 285.05 351.9 280.2 345.35 280.2 341.15 280.2 336.4 282.4Z"/></g></g><animate attributeName="display" repeatCount="indefinite" dur="8.208s" keyTimes="0;0.168;0.447;1" values="none;inline;none;none"/></g><g style="display:none;"><g><g id="Layer9_0_FILL"><path fill="#010202" stroke="none" d="M521.75 279.7L500.35 279.65 500.35 425.2 521.75 425.2 521.75 357.05Q535.9 384.2 554.85 424.95L555.1 425.5 572.15 412 542.7 352.7Q557.2 348.55 564.35 339.5 572 329.75 572 316.55 572 304.2 565.25 295.25 558.6 286.35 548.9 282.95 539.9 279.85 521.75 279.7M521.75 288.6L523.7 288.55Q535.65 288.55 542.9 296.7 550.15 304.85 550.15 317.9 550.15 331.3 541.15 339.9 534.25 346.6 521.75 348.1L521.75 288.6M453.05 280.35L440.9 280.95 414.8 388.1Q407.8 414 404.7 424.5L404.5 425.2 418.3 423.65 429.1 379.9 461.6 379.9 474.8 426.2 494.4 422.4 453.05 280.35M444.2 318.65L458.75 369.85 431.55 369.85 444.2 318.65M877.5 345.55Q877.5 314.6 863.7 297.85 849.85 281.1 823.95 280.65L792.2 280.65 792.2 424.65 823.55 424.65Q824.1 424.65 824.35 424.7L825.45 424.7Q832.25 424.7 837.9 422.05 843.45 419.35 850.6 412.75 863.4 400.9 870.45 383.3 877.5 365.75 877.5 345.55M810.85 299.4Q816.8 299.05 819.1 299.05 827.1 299.05 834.45 303.7 841.75 308.3 847.4 316.75 853.35 325.65 856.5 337.45 859.7 349.25 859.7 362.4 859.7 380.75 854.5 395.65 844.6 405.7 821.1 405.7 814.4 405.7 810.85 404.8L810.85 299.4M922.9 280.35L910.75 280.95 884.6 388.1Q877.6 414 874.5 424.5L874.3 425.2 888.1 423.65 898.9 379.9 931.45 379.9 944.6 426.2 964.2 422.4 922.9 280.35M928.55 369.85L901.4 369.85 914 318.65 928.55 369.85M661.25 281.45L661.15 281.8Q640.9 367.4 634.65 389.05L608.85 280.6 590.4 281.4 577.85 424.5 591.8 425.7 600.55 325.05Q610.85 367.35 614.9 384.55 620.75 409.6 623.4 423.3L623.45 423.7 637 423.7 664.15 318.85Q666.1 363.45 666.65 397.1L666.65 424.65 666.8 424.65 666.8 424.75 686.35 424.65 686.35 281.45 661.25 281.45M743.4 280.35L731.25 280.95 705.1 388.1Q697.8 415.25 695 424.5L694.8 425.2 708.65 423.65 719.4 379.9 751.95 379.9 765.1 426.2 784.75 422.4 743.4 280.35M734.5 318.65L749.1 369.85 721.9 369.85 734.5 318.65Z"/></g></g><animate attributeName="display" repeatCount="indefinite" dur="8.208s" keyTimes="0;0.325;0.447;1" values="none;inline;none;none"/></g><g style="display:none;"><g><g id="Layer8_0_FILL"><path fill="#010202" stroke="none" d="M383.1 598.4Q380.45 595.75 376.65 595.75 372.9 595.75 370.25 598.4 367.6 601.05 367.6 604.8 367.6 608.6 370.25 611.25 372.9 613.9 376.65 613.9 380.45 613.9 383.1 611.25 385.75 608.6 385.75 604.8 385.75 601.05 383.1 598.4M309.7 516.5Q309.7 532.25 317.45 542.3 320.25 546 324.35 549.2 326.85 551.2 331.8 554.3 337.35 557.75 340.4 560.3 343.6 562.95 345.1 567.6 346.65 572.2 346.65 579.2 346.65 585.1 345.8 588.85 345.05 592 343.25 595.15 342.65 595.3 341.45 595.3 335.8 595.3 328.75 591.35 320.45 586.65 318.15 579.9L317.95 579.25 300.1 593.45 300.2 593.75Q303.75 603.1 314.25 608.85 323.15 613.7 331.6 613.7 334.25 613.7 336.1 612.95 338.4 612.05 340.9 609.65L343.35 607.25Q355.1 595.65 358.7 589.6 364.3 580.15 364.3 566.25 364.3 558.45 361.85 551.5 359.4 544.55 354.85 539.35 352.2 536.4 348.55 533.75 346.25 532.1 341.8 529.5 338.05 527.3 336.3 526.1 330.35 522 327.65 516.5 325 511 325 502.9 325 497.85 325.8 493.75 326.65 489.65 328.1 487.4 330.1 486.7 331.6 486.7 336.2 486.7 341.8 490.45 348.15 494.7 350.8 501.15L351.05 501.75 367.7 486.75 367.6 486.45Q364.65 478.3 357.5 473.1 350.9 468.25 344.4 468.25 340.25 468.25 335.5 470.45 330.8 472.6 327.05 476.25 318.55 484.35 314.1 494.6 309.7 504.85 309.7 516.5M175.05 481.25Q169.4 474.9 162.15 471.3 154.85 467.7 147.7 467.7 143.8 467.7 140.25 469.05 137.4 470.1 133.8 472.5L133.75 472.5Q115.8 484.9 106.5 503.7 97.15 522.5 97.15 546.2 97.15 560.35 100.6 573 104.05 585.65 110.45 595.1 116.75 604.4 124.95 609.35 133.2 614.3 142.3 614.3 147.4 614.3 151.5 612.6 155.6 610.95 159.25 607.3 176.95 589.5 184.75 572.3 192.5 555.15 192.5 533.85 192.5 517.85 188 504.25 183.5 490.65 175.05 481.25M163.05 505.25Q168.75 513.25 171.8 524 174.8 534.7 174.8 546.8 174.8 558.2 172.7 569.4 170.75 579.6 168 585.15 166.7 587.7 162.3 589.25 157.95 590.75 151.95 590.75 135.9 590.75 125.5 574.15 115.05 557.6 115.05 532.05 115.05 520.3 117.85 508.9 120.35 498.6 123.9 493 126.55 489.1 135.2 489.1 143.15 489.1 150.35 493.3 157.55 497.45 163.05 505.25M288.65 468.45L269.65 468.45 269.65 610.2 288.65 610.2 288.65 468.45M260.5 479.4L260.5 468.45 188.85 468.45 188.85 479.4 214.2 479.4 214.2 611 235.2 611 235.2 479.4 260.5 479.4Z"/></g></g><animate attributeName="display" repeatCount="indefinite" dur="8.208s" keyTimes="0;0.447;0.609;1" values="none;inline;none;none"/></g><g style="display:none;"><g><g id="Layer7_0_FILL"><path fill="#010202" stroke="none" d="M490.75 528.55Q498.35 519 498.35 505.9 498.35 493.7 491.7 484.85 485.05 476 475.5 472.7 466.65 469.7 448.75 469.45L427.55 469.45 427.55 613.2 433.4 613.2 433.4 613.3 469.7 613.3Q484.5 613.3 496.6 607.1 515 597.7 515 577.35 515 561.65 502.55 552.35 491.75 544.25 475.35 543.2L466.55 542.15 469.4 541.55Q483.8 537.45 490.75 528.55M448.75 478.3L450.65 478.25Q462.45 478.25 469.6 486.25 476.75 494.3 476.75 507.25 476.75 520.45 467.85 528.95 461.05 535.55 448.75 537.05L448.75 478.3M448.75 548.8Q449.1 548.25 450.25 548.05 451.3 547.9 453.95 547.9 475 547.9 484.7 555.3 495.15 563.3 495.15 581.7 495.15 594.2 486.3 601.15 477.7 607.85 462.8 607.85 457.25 607.85 454.35 607 449.55 605.5 448.75 601.3L448.75 548.8M589.1 483.8Q582.5 475.05 572.9 471.7 564.15 468.7 546.15 468.45L525 468.45 525 612.2 546.15 612.2 546.15 544.9Q560.4 572.2 578.8 611.9L579.05 612.45 595.9 599.15 595.7 598.8Q587.6 582.55 583.15 573.4L566.8 540.55Q581.15 536.45 588.2 527.55 595.75 517.9 595.75 504.9 595.75 492.7 589.1 483.8M546.15 477.3Q547.45 477.2 548.05 477.2 559.85 477.2 567 485.25 574.2 493.35 574.2 506.2 574.2 519.45 565.3 527.95 558.3 534.6 546.15 536L546.15 477.3M955.2 614.6Q959 614.6 961.7 611.9 964.4 609.25 964.4 605.45 964.4 601.65 961.7 599 959 596.3 955.2 596.3 951.4 596.3 948.75 599 946.05 601.65 946.05 605.45 946.05 609.25 948.75 611.9 951.4 614.6 955.2 614.6M802.35 469.55L776.55 575.35Q768.7 604.4 766.6 611.3L766.35 612 780.05 610.5 790.65 567.3 822.8 567.3 835.8 613 855.15 609.25 814.35 468.95 802.35 469.55M793.1 557.35L805.6 506.8 819.95 557.35 793.1 557.35M695.25 468.25L679.65 468.95 679.75 553.15Q679.75 573.05 673.6 586 667.55 592.1 662.6 594.5 654.9 598.3 646.9 595.65 641.55 593.85 637.75 590.5 629.65 583.25 628.95 568.8 628.35 554.3 628.35 506.4L628.75 468.4 606.1 469.35 606.1 568.1Q606.1 589.75 617 602 627.95 614.25 647.85 614.25 659.6 614.25 669.7 605.4 681.65 595 688.3 577.9 694.55 561.85 695.25 542.4L695.25 468.25M776.25 479.35L776.25 468.3 704 468.3 704 479.35 729.55 479.35 729.55 612.05 750.7 612.05 750.7 479.35 776.25 479.35M886.75 468.8L865.6 468.8 865.6 601.5 865.55 601.5 865.55 612.55 931.9 612.55 931.9 601.5 886.75 601.5 886.75 468.8Z"/></g></g><animate attributeName="display" repeatCount="indefinite" dur="8.208s" keyTimes="0;0.533;0.609;1" values="none;inline;none;none"/></g><g style="display:none;"><g><g id="Layer6_0_FILL"><path fill="#010202" stroke="none" d="M631.7 787.5Q629 784.8 625.2 784.8 621.4 784.8 618.75 787.5 616.05 790.15 616.05 793.95 616.05 797.75 618.75 800.4 621.4 803.1 625.2 803.1 629 803.1 631.7 800.4 634.4 797.75 634.4 793.95 634.4 790.15 631.7 787.5M556.75 657.3L535.6 657.3 535.6 790 535.55 790 535.55 801.05 601.9 801.05 601.9 790 556.75 790 556.75 657.3M484.35 657.45L472.35 658.05 446.55 763.85Q438.7 792.9 436.6 799.8L436.35 800.5 450.05 799 460.65 755.8 492.8 755.8 505.8 801.5 525.15 797.75 484.35 657.45M463.1 745.85L475.6 695.3 489.95 745.85 463.1 745.85M446.25 667.85L446.25 656.8 374 656.8 374 667.85 399.55 667.85 399.55 800.55 420.7 800.55 420.7 667.85 446.25 667.85M242.9 660.2Q234.15 657.2 216.15 656.95L195 656.95 195 800.7 216.15 800.7 216.15 733.4Q230.4 760.7 248.8 800.4L249.05 800.95 265.9 787.65 265.7 787.3Q257.6 771.05 253.15 761.9L236.8 729.05Q251.15 724.95 258.2 716.05 265.75 706.4 265.75 693.4 265.75 681.2 259.1 672.3 252.5 663.55 242.9 660.2M216.15 665.8Q217.45 665.7 218.05 665.7 229.85 665.7 237 673.75 244.2 681.85 244.2 694.7 244.2 707.95 235.3 716.45 228.3 723.1 216.15 724.5L216.15 665.8M298.75 656.9L276.1 657.85 276.1 756.6Q276.1 778.25 287 790.5 297.95 802.75 317.85 802.75 329.6 802.75 339.7 793.9 351.65 783.5 358.3 766.4 364.55 750.35 365.25 730.9L365.25 656.75 349.65 657.45 349.75 741.65Q349.75 761.55 343.6 774.5 337.55 780.6 332.6 783 324.9 786.8 316.9 784.15 311.55 782.35 307.75 779 299.65 771.75 298.95 757.3 298.35 742.8 298.35 694.9L298.75 656.9M118.75 657.95L97.55 657.95 97.55 801.7 103.4 801.7 103.4 801.8 139.7 801.8Q154.5 801.8 166.6 795.6 185 786.2 185 765.85 185 750.15 172.55 740.85 161.75 732.75 145.35 731.7L136.55 730.65 139.4 730.05Q153.8 725.95 160.75 717.05 168.35 707.5 168.35 694.4 168.35 682.2 161.7 673.35 155.05 664.5 145.5 661.2 136.65 658.2 118.75 657.95M118.75 666.8L120.65 666.75Q132.45 666.75 139.6 674.75 146.75 682.8 146.75 695.75 146.75 708.95 137.85 717.45 131.05 724.05 118.75 725.55L118.75 666.8M118.75 737.3Q119.1 736.75 120.25 736.55 121.3 736.4 123.95 736.4 145 736.4 154.7 743.8 165.15 751.8 165.15 770.2 165.15 782.7 156.3 789.65 147.7 796.35 132.8 796.35 127.25 796.35 124.35 795.5 119.55 794 118.75 789.8L118.75 737.3Z"/></g></g><animate attributeName="display" repeatCount="indefinite" dur="8.208s" keyTimes="0;0.701;1" values="none;inline;inline"/></g><g style="display:none;"><g><g id="Layer5_0_FILL"><path fill="#010202" stroke="none" d="M1211.7 787Q1209 784.3 1205.2 784.3 1201.4 784.3 1198.75 787 1196.05 789.65 1196.05 793.45 1196.05 797.25 1198.75 799.9 1201.4 802.6 1205.2 802.6 1209 802.6 1211.7 799.9 1214.4 797.25 1214.4 793.45 1214.4 789.65 1211.7 787M1064.35 656.95L1052.35 657.55 1026.55 763.35Q1018.7 792.4 1016.6 799.3L1016.35 800 1030.05 798.5 1040.65 755.3 1072.8 755.3 1085.8 801 1105.15 797.25 1064.35 656.95M1055.6 694.8L1069.95 745.35 1043.1 745.35 1055.6 694.8M1115.6 789.5L1115.55 789.5 1115.55 800.55 1181.9 800.55 1181.9 789.5 1136.75 789.5 1136.75 656.8 1115.6 656.8 1115.6 789.5M945.25 656.25L929.65 656.95 929.75 741.15Q929.75 761.05 923.6 774 917.55 780.1 912.6 782.5 904.9 786.3 896.9 783.65 891.55 781.85 887.75 778.5 879.65 771.25 878.95 756.8 878.35 742.3 878.35 694.4L878.75 656.4 856.1 657.35 856.1 756.1Q856.1 777.75 867 790 877.95 802.25 897.85 802.25 909.6 802.25 919.7 793.4 931.65 783 938.3 765.9 944.55 749.85 945.25 730.4L945.25 656.25M954 656.3L954 667.35 979.55 667.35 979.55 800.05 1000.7 800.05 1000.7 667.35 1026.25 667.35 1026.25 656.3 954 656.3M725.5 660.7Q716.65 657.7 698.75 657.45L677.55 657.45 677.55 801.2 683.4 801.2 683.4 801.3 719.7 801.3Q734.5 801.3 746.6 795.1 765 785.7 765 765.35 765 749.65 752.55 740.35 741.75 732.25 725.35 731.2L716.55 730.15 719.4 729.55Q733.8 725.45 740.75 716.55 748.35 707 748.35 693.9 748.35 681.7 741.7 672.85 735.05 664 725.5 660.7M698.75 666.3L700.65 666.25Q712.45 666.25 719.6 674.25 726.75 682.3 726.75 695.25 726.75 708.45 717.85 716.95 711.05 723.55 698.75 725.05L698.75 666.3M698.75 736.8Q699.1 736.25 700.25 736.05 701.3 735.9 703.95 735.9 725 735.9 734.7 743.3 745.15 751.3 745.15 769.7 745.15 782.2 736.3 789.15 727.7 795.85 712.8 795.85 707.25 795.85 704.35 795 699.55 793.5 698.75 789.3L698.75 736.8M796.15 656.45L775 656.45 775 800.2 796.15 800.2 796.15 732.9Q810.4 760.2 828.8 799.9L829.05 800.45 845.9 787.15 845.7 786.8Q837.6 770.55 833.15 761.4L816.8 728.55Q831.15 724.45 838.2 715.55 845.75 705.9 845.75 692.9 845.75 680.7 839.1 671.8 832.5 663.05 822.9 659.7 814.15 656.7 796.15 656.45M796.15 665.3Q797.45 665.2 798.05 665.2 809.85 665.2 817 673.25 824.2 681.35 824.2 694.2 824.2 707.45 815.3 715.95 808.3 722.6 796.15 724L796.15 665.3Z"/></g></g><animate attributeName="display" repeatCount="indefinite" dur="8.208s" keyTimes="0;0.772;1" values="none;inline;inline"/></g><g style="display:none;"><g><g id="Layer4_0_FILL"><path fill="#010202" stroke="none" d="M788.35 18.8L709.65 189.55 1230.95 429.85 1309.65 259.1 788.35 18.8Z"/></g></g><animate attributeName="display" repeatCount="indefinite" dur="8.208s" keyTimes="0;0.579;0.675;1" values="none;inline;none;none"/></g><g style="display:none;"><g><g id="Layer3_0_FILL"><path fill="#010202" stroke="none" d="M1233.15 415.35L1221.2 227.75 648.35 264.2 660.3 451.85 1233.15 415.35Z"/></g></g><animate attributeName="display" repeatCount="indefinite" dur="8.208s" keyTimes="0;0.675;0.766;1" values="none;inline;none;none"/></g><g style="display:none;"><g><g id="Layer2_0_FILL"><path fill="#010202" stroke="none" d="M1157.8 746.3L1231.35 573.3 703.15 348.65 629.6 521.7 1157.8 746.3Z"/></g></g><animate attributeName="display" repeatCount="indefinite" dur="8.208s" keyTimes="0;0.766;0.914;1" values="none;inline;none;none"/></g><g style="display:none;"><g><g id="Layer1_0_FILL"><path fill="#010202" stroke="none" d="M1231 633L657 633 657 821 1231 821 1231 633Z"/></g></g><animate attributeName="display" repeatCount="indefinite" dur="8.208s" keyTimes="0;0.914;1" values="none;inline;inline"/></g></g></svg>